<?xml version="1.0" encoding="UTF-8"?>
<svg width="115px" height="119px" viewBox="0 0 115 119" version="1.1" xmlns="http://www.w3.org/2000/svg" xmlns:xlink="http://www.w3.org/1999/xlink">
    <!-- Generator: Sketch 61.2 (89653) - https://sketch.com -->
    <title>no-result</title>
    <desc>Created with Sketch.</desc>
    <g id="Services-Categories" stroke="none" stroke-width="1" fill="none" fill-rule="evenodd">
        <g id="Home-Page-Copy" transform="translate(-893.000000, -164.000000)" fill="#BAC1D2">
            <path d="M963.187,164 C987.799,164 1007.751,183.952 1007.751,208.564 C1007.751,233.176 987.799,253.128 963.187,253.128 C952.449,253.128 942.599,249.329 934.905,243.003 L934.905,243.003 L931.407,246.919 L936.937,252.449 L909.647,279.739 C907.747,281.64 905.249,282.59 902.751,282.59 C900.254,282.59 897.757,281.64 895.857,279.739 C894.015,277.897 893,275.448 893,272.843 C893,270.239 894.015,267.79 895.857,265.948 L895.857,265.948 L923.146,238.659 L928.575,244.087 L931.936,240.325 C923.721,232.241 918.623,221 918.623,208.564 C918.623,183.952 938.575,164 963.187,164 Z M923.146,244.315 L898.685,268.776 C897.599,269.863 897,271.307 897,272.843 C897,274.379 897.599,275.824 898.685,276.911 C899.772,277.997 901.216,278.595 902.751,278.595 C904.288,278.595 905.732,277.997 906.819,276.911 L906.819,276.911 L931.281,252.449 L923.146,244.315 Z M963.187,167.729 C940.635,167.729 922.353,186.012 922.353,208.564 C922.353,231.116 940.635,249.399 963.187,249.399 C985.74,249.399 1004.022,231.116 1004.022,208.564 C1004.022,186.012 985.74,167.729 963.187,167.729 Z M929.7666,218.3105 C930.5526,217.9095 931.5196,218.2795 931.8176,219.1095 C934.3406,226.1425 939.3106,232.0635 945.7476,235.9175 C946.4756,236.3535 946.6656,237.3225 946.1806,238.0185 C945.7416,238.6465 944.8876,238.8495 944.2286,238.4575 C937.1886,234.2665 931.7396,227.8145 928.9686,220.1445 C928.7186,219.4505 929.0436,218.6775 929.7006,218.3435 L929.7006,218.3435 Z M963.7515,210.0162 C968.1395,210.0162 973.0585,212.7082 973.0585,218.5722 C973.0585,219.4002 972.3865,220.0722 971.5585,220.0722 C970.7305,220.0722 970.0585,219.4002 970.0585,218.5722 C970.0585,214.5512 966.3325,213.0162 963.7515,213.0162 C961.2355,213.0162 957.4455,214.5512 957.4455,218.5722 C957.4455,219.4002 956.7735,220.0722 955.9455,220.0722 C955.1175,220.0722 954.4455,219.4002 954.4455,218.5722 C954.4455,212.7082 959.2355,210.0162 963.7515,210.0162 Z M952.2676,200.0958 C954.8336,200.0958 956.9136,202.1768 956.9136,204.7418 C956.9136,207.3068 954.8336,209.3878 952.2676,209.3878 C949.7026,209.3878 947.6226,207.3068 947.6226,204.7418 C947.6226,202.1768 949.7026,200.0958 952.2676,200.0958 Z M974.6548,200.0963 C977.2198,200.0963 979.3008,202.1763 979.3008,204.7423 C979.3008,207.3073 977.2198,209.3873 974.6548,209.3873 C972.0898,209.3873 970.0098,207.3073 970.0098,204.7423 C970.0098,202.1763 972.0898,200.0963 974.6548,200.0963 Z" id="no-result"></path>
        </g>
    </g>
</svg>