<?xml version="1.0" standalone="no"?>
<!DOCTYPE svg PUBLIC "-//W3C//DTD SVG 20010904//EN"
 "http://www.w3.org/TR/2001/REC-SVG-20010904/DTD/svg10.dtd">
<svg version="1.0" xmlns="http://www.w3.org/2000/svg"
 width="287.000000pt" height="176.000000pt" viewBox="0 0 287.000000 176.000000"
 preserveAspectRatio="xMidYMid meet">

<g transform="translate(0.000000,176.000000) scale(0.100000,-0.100000)"
fill="#000000" stroke="none">
<path d="M763 1573 l-343 -186 0 -538 0 -537 222 -115 c430 -221 374 -198 471
-195 l86 3 -350 180 -349 179 0 486 0 485 303 165 c166 91 340 186 387 212
l85 48 -85 0 -85 0 -342 -187z"/>
<path d="M1553 1754 c4 -4 183 -96 399 -205 l393 -197 3 -484 2 -484 -172 -93
c-95 -51 -254 -137 -352 -190 l-180 -96 83 -3 82 -3 310 166 309 167 0 536 0
537 -355 178 -354 177 -87 0 c-48 0 -84 -3 -81 -6z"/>
<path d="M1434 1425 c-4 -8 -3 -22 0 -30 4 -11 -3 -19 -20 -26 -21 -7 -25 -15
-22 -33 4 -18 -1 -27 -20 -35 -19 -9 -23 -17 -19 -37 3 -18 0 -27 -12 -31 -32
-12 -41 -24 -31 -43 7 -14 4 -20 -17 -29 -19 -9 -24 -17 -21 -36 4 -18 0 -25
-17 -29 -25 -6 -38 -39 -23 -54 6 -6 0 -12 -16 -16 -19 -5 -26 -13 -26 -30 0
-26 17 -36 60 -36 42 0 60 10 60 32 0 18 -4 19 -35 14 -52 -10 -42 -1 20 19
41 13 55 22 55 36 0 11 -7 19 -16 19 -25 0 -7 17 26 23 34 7 43 43 13 49 -12
3 -5 8 20 17 26 9 37 18 37 32 0 17 -5 19 -37 14 -31 -4 -28 -2 17 13 56 19
76 46 48 63 -9 6 -4 11 20 20 21 7 32 18 32 30 0 15 -6 18 -32 13 -24 -4 -20
0 17 14 51 19 70 46 43 63 -23 15 -98 11 -104 -6z m-14 -145 c-34 -11 -60 -11
-35 0 11 5 29 8 40 8 16 0 15 -2 -5 -8z m-73 -136 c-3 -3 -12 -4 -19 -1 -8 3
-5 6 6 6 11 1 17 -2 13 -5z m-40 -70 c-3 -3 -12 -4 -19 -1 -8 3 -5 6 6 6 11 1
17 -2 13 -5z"/>
<path d="M1570 1420 c-6 -12 -9 -57 -8 -106 3 -69 7 -88 21 -95 16 -10 16 -12
-3 -36 -11 -14 -20 -41 -20 -59 0 -33 1 -34 41 -34 24 0 38 -4 34 -10 -3 -5
-22 -10 -41 -10 -32 0 -34 -2 -34 -33 0 -52 35 -84 73 -65 14 7 17 24 17 108
0 91 -2 100 -21 111 l-21 11 21 14 c16 12 21 26 21 59 0 42 -1 44 -32 48 l-33
4 33 1 c31 2 32 3 32 45 0 24 -5 48 -12 55 -19 19 -56 14 -68 -8z"/>
<path d="M1786 1424 c-9 -9 -16 -32 -16 -55 l0 -39 45 0 45 0 0 43 c0 63 -37
88 -74 51z"/>
<path d="M1900 1435 c0 -2 15 -9 33 -14 30 -10 29 -10 -10 -5 -38 5 -43 4 -43
-14 0 -25 24 -34 79 -30 37 2 41 4 41 29 0 15 -7 29 -16 33 -18 7 -84 8 -84 1z"/>
<path d="M740 1411 c-5 -11 -10 -36 -10 -55 0 -36 0 -36 45 -36 l45 0 0 43 c0
24 -5 48 -12 55 -18 18 -56 14 -68 -7z"/>
<path d="M848 1419 c-41 -23 -8 -59 54 -59 36 0 58 15 58 38 0 10 -10 12 -42
8 l-43 -6 30 14 30 14 -35 1 c-19 0 -43 -4 -52 -10z"/>
<path d="M982 1418 c-24 -24 -14 -47 25 -54 44 -8 87 5 91 30 3 16 -1 17 -40
12 l-43 -6 30 14 30 14 -40 1 c-23 1 -46 -4 -53 -11z"/>
<path d="M2005 1371 c-3 -5 3 -12 12 -14 10 -2 3 -2 -14 0 -28 3 -33 1 -33
-16 0 -14 9 -23 26 -27 l27 -7 -27 -14 c-14 -8 -26 -22 -26 -33 0 -14 -7 -20
-22 -20 -46 0 -68 -12 -68 -35 0 -25 17 -35 60 -35 42 0 60 10 60 32 0 18 -4
19 -36 14 -19 -4 -43 -9 -52 -12 -13 -4 -12 -3 2 7 10 6 53 14 94 18 55 4 78
11 86 23 16 26 1 32 -46 20 -23 -6 -44 -9 -47 -7 -2 3 10 8 27 11 31 6 44 23
20 25 -7 1 -2 4 12 8 36 10 39 48 5 61 -33 12 -52 13 -60 1z"/>
<path d="M1770 1282 c0 -77 82 -101 90 -27 6 59 2 65 -45 65 l-45 0 0 -38z"/>
<path d="M730 1274 c0 -47 16 -74 43 -74 34 0 47 19 47 67 l0 43 -45 0 c-45 0
-45 0 -45 -36z"/>
<path d="M1475 1230 c-3 -5 0 -10 7 -13 7 -2 0 -2 -15 1 -25 3 -28 1 -25 -19
6 -45 128 -43 128 1 0 19 -6 21 -72 35 -10 2 -20 -1 -23 -5z"/>
<path d="M842 1218 c-33 -33 12 -65 73 -54 69 13 54 66 -19 66 -23 0 -47 -5
-54 -12z m58 -8 c20 -6 21 -8 5 -8 -11 0 -29 3 -40 8 -25 11 1 11 35 0z"/>
<path d="M1005 1220 c18 -8 17 -9 -7 -9 -35 -1 -37 -27 -4 -42 30 -14 95 -3
103 17 10 26 -17 44 -66 43 -35 0 -41 -2 -26 -9z m65 -19 c0 -5 -9 -7 -20 -4
-11 3 -20 7 -20 9 0 2 9 4 20 4 11 0 20 -4 20 -9z"/>
<path d="M1787 1182 c-20 -22 -23 -88 -4 -96 10 -5 10 -7 0 -12 -7 -3 -13 -20
-13 -38 0 -48 23 -71 67 -67 15 1 32 58 25 84 -3 10 -14 17 -28 17 -12 0 -26
5 -29 10 -4 6 7 10 24 10 32 0 35 6 31 60 -1 25 -24 50 -45 50 -7 0 -19 -8
-28 -18z"/>
<path d="M740 1161 c-5 -11 -10 -36 -10 -55 0 -36 0 -36 45 -36 l45 0 0 43 c0
24 -5 48 -12 55 -18 18 -56 14 -68 -7z"/>
<path d="M730 1021 c0 -38 19 -71 41 -71 33 0 49 22 49 65 l0 45 -45 0 -45 0
0 -39z"/>
<path d="M853 1020 c-26 -11 -31 -45 -7 -54 20 -8 78 -8 98 0 9 3 16 15 16 26
0 18 -5 19 -37 14 -30 -4 -33 -4 -15 4 12 5 22 12 22 15 0 8 -53 5 -77 -5z
m24 -26 c-3 -3 -12 -4 -19 -1 -8 3 -5 6 6 6 11 1 17 -2 13 -5z"/>
<path d="M988 1019 c-22 -13 -23 -45 -2 -53 24 -9 73 -7 95 4 23 13 26 40 4
40 -8 0 -15 5 -15 10 0 13 -60 12 -82 -1z m72 -13 c0 -2 -11 -6 -25 -8 -13 -3
-22 -1 -19 3 5 9 44 13 44 5z"/>
<path d="M1371 946 c-17 -18 -22 -32 -17 -50 4 -15 2 -26 -4 -26 -5 0 -10 -9
-10 -20 0 -11 5 -20 10 -20 6 0 10 -9 10 -19 0 -11 6 -22 13 -24 7 -4 6 -6 -5
-6 -9 -1 -30 13 -46 29 -17 17 -40 30 -51 30 -41 0 -307 -77 -298 -86 2 -2 25
3 50 12 26 9 52 14 58 12 20 -7 -88 -58 -122 -58 -31 0 -32 1 -13 16 18 14 18
15 -3 4 -42 -20 -24 -30 52 -30 43 0 75 -4 75 -10 0 -6 60 -10 160 -10 l160 0
0 -30 0 -31 -31 23 c-56 42 -150 21 -165 -37 -9 -37 4 -74 30 -87 24 -10 25
-13 42 -130 3 -24 11 -49 17 -57 6 -7 10 -28 8 -46 -1 -22 4 -40 16 -52 10
-10 17 -26 15 -35 -2 -9 2 -27 9 -40 7 -13 12 -33 10 -45 -1 -11 3 -24 9 -28
6 -4 8 -15 5 -26 -10 -32 25 -68 65 -68 l35 1 -47 20 c-27 11 -48 27 -48 34 0
17 5 17 28 4 9 -5 34 -16 55 -24 20 -8 37 -21 37 -28 1 -7 7 -2 14 12 8 14 12
28 9 32 -2 5 5 35 17 68 12 33 20 66 17 73 -2 6 2 25 10 41 8 15 12 38 9 51
-4 14 0 28 10 36 10 8 14 26 13 50 -2 21 3 44 11 54 7 9 14 33 14 53 1 24 9
45 23 59 32 32 39 68 19 99 -34 51 -111 55 -163 9 -24 -21 -26 -26 -13 -35 8
-6 24 -8 35 -5 11 3 35 9 54 12 40 7 40 -10 -1 -40 -20 -15 -34 -18 -67 -12
l-41 7 0 59 0 59 63 1 c34 1 55 3 46 6 -17 4 -51 57 -43 66 9 9 74 -43 74 -59
0 -11 18 -14 78 -13 53 0 69 3 51 8 -39 12 -157 105 -137 109 20 4 188 -89
182 -100 -3 -4 0 -8 5 -8 6 0 11 5 11 10 0 6 30 10 70 10 66 0 70 1 61 19 -6
10 -18 21 -28 25 -17 6 -17 5 0 -8 50 -39 -19 -35 -96 6 -53 29 -57 33 -37 38
16 4 -9 12 -74 24 -53 10 -100 16 -103 12 -4 -3 0 -6 8 -6 8 0 5 -5 -7 -13
-12 -6 -31 -18 -43 -25 -30 -18 -26 3 5 27 15 12 22 21 15 21 -6 0 -23 -13
-38 -30 -32 -37 -43 -38 -43 -5 0 14 5 25 10 25 6 0 10 9 10 20 0 11 -4 20 -8
20 -4 0 -6 15 -4 33 7 64 -62 91 -107 43z m69 -20 c0 -2 -3 -11 -6 -20 -5 -12
-9 -13 -24 -4 -10 7 -16 16 -14 20 5 8 44 11 44 4z m-122 -126 c15 -17 36 -30
49 -30 20 0 23 -5 23 -35 0 -26 -4 -35 -16 -35 -12 0 -15 7 -12 28 3 22 0 28
-16 30 -11 0 -28 11 -37 23 -9 12 -29 28 -45 35 l-29 12 28 1 c20 1 37 -8 55
-29z m432 -26 c58 -35 62 -39 39 -42 -26 -3 -152 58 -166 80 -13 23 64 -1 127
-38z m-490 27 c-1 -13 -141 -101 -160 -101 -32 0 -24 13 28 42 26 15 56 34 67
43 22 19 28 22 -77 -39 -26 -15 -58 -26 -70 -24 -20 3 -18 6 20 27 30 18 39
27 30 34 -9 6 -7 7 5 3 10 -3 28 0 39 8 20 14 119 19 118 7z m-7 -62 c-35 -33
-49 -40 -75 -37 l-33 3 65 47 c80 57 107 49 43 -13z m376 7 l55 -41 -33 -3
c-26 -3 -40 4 -75 36 -31 28 -41 43 -33 51 12 12 14 11 86 -43z m-119 24 c0
-5 -15 -9 -32 -9 l-33 1 30 8 c17 4 31 8 33 9 1 0 2 -3 2 -9z m-196 -23 c-18
-31 -39 -47 -63 -47 -26 1 -26 1 12 36 34 32 67 39 51 11z m34 -25 c3 -18 -2
-22 -22 -22 -30 0 -31 3 -14 30 16 25 32 21 36 -8z m122 -3 c0 -10 -4 -19 -10
-19 -5 0 -10 12 -10 26 0 14 4 23 10 19 6 -3 10 -15 10 -26z m42 14 c25 -22
23 -33 -7 -33 -20 0 -25 5 -25 25 0 29 7 31 32 8z m-182 -83 c0 -4 8 -7 18 -6
9 0 17 -5 17 -13 0 -10 -16 -14 -60 -15 -53 -1 -60 -3 -60 -21 0 -30 55 -45
140 -38 111 9 205 -29 205 -82 0 -39 -23 -48 -50 -20 -29 31 -106 55 -174 55
-61 0 -124 16 -148 38 -24 20 -23 65 1 86 32 29 111 41 111 16z m298 -12 c12
-12 22 -29 22 -38 0 -28 -39 -70 -65 -70 -36 0 -39 17 -9 43 19 17 25 29 21
42 -7 17 -29 17 -99 2 -6 -1 -13 4 -15 11 -3 6 2 12 11 12 9 0 16 4 16 9 0 12
38 20 70 14 14 -2 35 -14 48 -25z m-238 -43 c0 -24 -3 -25 -53 -25 -60 0 -107
23 -74 36 10 3 38 4 62 1 25 -4 47 -2 50 3 10 16 15 11 15 -15z m5 -106 c4 -6
5 -13 2 -16 -8 -7 -47 7 -47 18 0 13 37 11 45 -2z m-57 -13 c15 -8 65 -24 111
-36 94 -26 126 -49 115 -83 -10 -32 -12 -33 -37 -9 -29 28 -80 48 -142 56 -67
9 -103 24 -110 47 -13 39 15 50 63 25z m151 -2 c26 -19 16 -36 -17 -28 -13 4
-22 14 -22 25 0 23 9 24 39 3z m-155 -89 c13 -9 57 -25 97 -36 82 -23 109 -41
109 -74 0 -31 -9 -36 -29 -16 -19 19 -78 43 -148 61 -53 13 -88 41 -80 63 8
21 21 21 51 2z m66 -5 c0 -13 -11 -13 -30 0 -12 8 -11 10 8 10 12 0 22 -4 22
-10z m86 -27 c-8 -8 -36 5 -36 17 0 7 6 7 21 0 11 -7 18 -14 15 -17z m-143
-58 c12 -8 52 -24 89 -35 68 -21 88 -39 88 -79 0 -25 -15 -28 -24 -5 -4 10
-13 13 -28 9 -17 -5 -19 -4 -9 3 11 8 6 14 -25 27 -21 9 -51 19 -66 22 -35 7
-69 39 -62 58 7 18 9 19 37 0z m57 -5 c0 -5 -7 -7 -15 -4 -8 4 -15 8 -15 10 0
2 7 4 15 4 8 0 15 -4 15 -10z m75 -20 c8 -13 -5 -13 -25 0 -13 8 -13 10 2 10
9 0 20 -4 23 -10z m-50 -90 c49 -15 75 -37 75 -63 0 -16 -3 -17 -15 -7 -8 6
-20 8 -26 4 -8 -4 -9 -3 -5 4 4 8 -3 16 -20 22 -21 8 -29 8 -36 -2 -7 -12 -12
-4 -9 15 0 4 -5 7 -12 7 -19 0 -50 37 -42 49 4 7 13 6 28 -3 12 -8 40 -19 62
-26z m-25 30 c0 -5 -4 -10 -9 -10 -6 0 -13 5 -16 10 -3 6 1 10 9 10 9 0 16 -4
16 -10z m-22 -80 c9 -5 38 -18 65 -29 40 -17 47 -24 47 -48 -1 -23 -2 -25 -10
-11 -6 9 -31 24 -58 34 -56 21 -72 32 -72 50 0 17 4 17 28 4z"/>
<path d="M1810 785 c46 -18 64 -17 25 0 -16 8 -37 14 -45 14 -8 0 1 -7 20 -14z"/>
</g>
</svg>
