<?xml version="1.0" standalone="no"?>
<!DOCTYPE svg PUBLIC "-//W3C//DTD SVG 20010904//EN"
 "http://www.w3.org/TR/2001/REC-SVG-20010904/DTD/svg10.dtd">
<svg version="1.0" xmlns="http://www.w3.org/2000/svg"
 width="3000.000000pt" height="500.000000pt" viewBox="0 0 3000.000000 500.000000"
 preserveAspectRatio="xMidYMid meet">

<g transform="translate(0.000000,500.000000) scale(0.100000,-0.100000)"
fill="#000000" stroke="none">
<path d="M0 2500 l0 -2500 15000 0 15000 0 0 2500 0 2500 -15000 0 -15000 0 0
-2500z m10189 1036 c78 -41 64 -169 -24 -210 -100 -48 -197 49 -149 149 31 66
109 94 173 61z m7234 -7 c45 -12 72 -50 70 -98 -1 -20 -47 -183 -102 -362 -56
-180 -101 -333 -101 -341 0 -8 9 -23 20 -33 24 -22 25 -29 4 -49 -13 -13 -45
-16 -194 -16 -98 0 -185 3 -194 6 -26 10 -19 35 19 68 33 29 41 50 136 364
l101 333 -26 28 c-33 34 -27 53 22 75 73 33 179 44 245 25z m-5098 -136 c17
-16 17 -71 0 -115 -6 -14 2 -17 47 -20 51 -3 53 -4 56 -34 4 -43 -22 -62 -88
-66 l-54 -3 -48 -155 c-26 -85 -47 -168 -45 -185 2 -29 3 -30 66 -35 36 -3 66
-10 68 -17 7 -21 -57 -80 -119 -109 -55 -25 -75 -29 -153 -29 -76 0 -96 4
-126 22 -78 49 -81 101 -15 300 25 78 46 149 46 157 0 8 -18 36 -40 61 -45 52
-44 49 -30 76 9 15 22 19 66 19 54 0 57 2 125 62 38 35 80 68 92 75 34 19 132
16 152 -4z m5640 0 c17 -16 17 -71 0 -115 -6 -14 2 -17 47 -20 51 -3 53 -4 56
-34 4 -43 -22 -62 -88 -66 l-54 -3 -48 -155 c-26 -85 -47 -168 -45 -185 2 -29
3 -30 66 -35 36 -3 66 -10 68 -17 7 -21 -57 -80 -119 -109 -55 -25 -75 -29
-153 -29 -76 0 -96 4 -126 22 -78 49 -81 101 -15 300 25 78 46 149 46 157 0 8
-18 36 -40 61 -45 52 -44 49 -30 76 9 15 22 19 66 19 54 0 57 2 125 62 38 35
80 68 92 75 34 19 132 16 152 -4z m-8424 -123 c45 -12 96 -47 123 -83 15 -21
21 -43 21 -81 -1 -73 -31 -118 -103 -153 -50 -25 -69 -28 -184 -31 l-128 -4 6
-27 c4 -14 17 -37 30 -50 39 -41 154 -39 271 6 9 4 13 -5 13 -30 0 -48 -50
-112 -119 -150 -97 -55 -267 -49 -364 13 -112 71 -140 213 -77 384 40 106 152
194 276 216 54 10 179 4 235 -10z m3781 -12 c162 -70 129 -264 -41 -245 -63 7
-101 50 -101 112 0 25 -4 45 -8 45 -26 0 -96 -66 -114 -107 -25 -57 -28 -147
-5 -189 31 -59 124 -75 229 -40 32 11 61 17 64 13 14 -14 -17 -84 -52 -121
-83 -85 -230 -119 -358 -82 -105 31 -186 138 -186 247 0 102 53 221 127 289
110 101 311 136 445 78z m2556 8 c29 -9 68 -31 88 -48 32 -28 35 -35 32 -77
-3 -39 -8 -49 -37 -68 -85 -57 -231 -1 -231 88 0 27 -3 29 -38 29 -45 0 -62
-14 -62 -50 0 -37 28 -59 158 -125 157 -79 194 -134 158 -230 -24 -60 -84
-111 -164 -135 -74 -23 -255 -28 -344 -9 -156 33 -232 135 -163 218 72 85 236
23 239 -90 1 -35 4 -40 31 -45 43 -8 83 10 91 41 11 46 -9 68 -114 123 -142
74 -184 129 -167 220 15 80 79 139 184 169 62 17 268 10 339 -11z m4584 -8
c162 -70 129 -264 -41 -245 -63 7 -101 50 -101 112 0 25 -4 45 -8 45 -26 0
-96 -66 -114 -107 -25 -57 -28 -147 -5 -189 31 -59 124 -75 229 -40 32 11 61
17 64 13 14 -14 -17 -84 -52 -121 -83 -85 -230 -119 -358 -82 -105 31 -186
138 -186 247 0 102 53 221 127 289 110 101 311 136 445 78z m-11747 7 c186
-48 243 -210 145 -411 -52 -106 -172 -196 -298 -223 -118 -25 -268 -6 -344 44
-111 73 -128 254 -36 397 103 162 331 245 533 193z m1408 2 c78 -33 77 -70 -2
-328 -34 -108 -61 -203 -61 -211 0 -8 9 -23 20 -33 24 -22 25 -29 4 -49 -13
-13 -45 -16 -194 -16 -98 0 -185 3 -194 6 -26 10 -19 35 19 68 32 28 40 48 96
235 l61 203 -27 27 c-32 34 -26 53 23 74 87 38 197 48 255 24z m502 -1 c19 -8
40 -26 47 -40 14 -31 19 -32 36 -5 30 48 144 74 200 45 53 -28 75 -62 80 -124
3 -48 0 -63 -20 -92 -29 -42 -61 -60 -111 -60 -52 0 -70 12 -106 70 -54 88
-60 80 -137 -174 l-48 -159 34 -29 c29 -23 33 -31 24 -46 -10 -15 -34 -17
-200 -20 -104 -1 -199 0 -211 3 -33 8 -28 33 12 69 31 28 40 51 96 234 l62
203 -22 23 c-11 12 -21 30 -21 39 0 54 201 98 285 63z m751 -16 c44 -42 54
-74 80 -258 13 -97 26 -183 29 -189 13 -37 72 16 107 95 20 44 20 44 -1 66
-49 52 -67 169 -37 241 30 71 119 96 175 49 112 -94 30 -393 -171 -626 -64
-74 -154 -142 -248 -187 -65 -31 -86 -36 -165 -39 -80 -3 -95 -1 -134 20 -58
31 -83 66 -88 125 -4 42 -1 53 21 80 15 17 40 34 56 38 66 15 142 -40 156
-113 6 -28 9 -31 33 -25 33 8 98 40 106 52 3 6 -14 19 -38 29 -60 27 -74 61
-107 268 -16 95 -31 178 -35 184 -4 7 -19 9 -36 5 -25 -6 -29 -4 -29 15 0 61
65 148 135 182 58 27 155 21 191 -12z m2715 11 c96 -29 158 -105 166 -203 10
-117 -36 -226 -132 -317 -96 -91 -206 -127 -360 -119 -211 12 -321 130 -286
309 33 164 159 291 334 335 59 15 221 12 278 -5z m629 1 c25 -12 39 -28 49
-58 l14 -40 42 41 c102 102 277 98 332 -8 26 -50 19 -120 -26 -262 -23 -71
-41 -137 -41 -147 0 -19 25 -25 35 -8 13 21 25 9 25 -26 0 -29 -8 -44 -38 -74
-80 -81 -243 -82 -314 -2 -29 33 -30 39 -25 96 3 36 22 102 46 164 46 114 49
137 24 150 -26 14 -60 -2 -81 -37 -25 -41 -106 -316 -99 -332 4 -8 14 -24 22
-35 14 -20 14 -23 0 -38 -14 -14 -44 -16 -195 -16 -98 0 -185 3 -194 6 -25 10
-19 34 19 68 31 28 40 51 96 234 l62 203 -22 23 c-11 12 -21 30 -21 39 0 56
210 99 290 59z m1742 -21 c16 -18 28 -43 28 -58 0 -15 -21 -94 -46 -176 -52
-170 -53 -192 -9 -192 42 0 63 37 109 193 l39 133 -22 22 c-11 13 -21 31 -21
40 0 42 143 85 248 74 47 -5 62 -11 85 -37 15 -17 27 -41 27 -55 0 -13 -23
-100 -52 -192 -61 -199 -66 -223 -46 -223 8 0 19 5 26 12 9 9 15 9 23 1 32
-32 -45 -132 -116 -152 -93 -25 -196 -1 -231 56 -10 15 -19 30 -21 32 -2 3
-16 -7 -31 -22 -94 -90 -268 -89 -345 2 -40 48 -36 102 20 287 l47 154 -22 23
c-12 13 -22 31 -22 40 0 41 115 78 229 73 69 -3 77 -6 103 -35z m2173 24 c169
-43 207 -137 145 -355 -16 -58 -30 -111 -30 -117 0 -16 36 -17 46 -2 12 20 26
-8 20 -38 -15 -67 -102 -123 -191 -123 -66 0 -122 21 -151 57 l-22 26 -38 -30
c-49 -39 -93 -53 -161 -53 -68 0 -110 18 -150 63 -42 48 -52 110 -28 175 46
121 174 166 360 127 38 -8 71 -15 72 -15 1 0 11 25 22 55 28 75 28 129 -1 149
-36 25 -47 20 -46 -23 1 -74 -44 -111 -137 -111 -70 0 -115 34 -115 87 0 43
12 66 49 92 67 48 240 65 356 36z m685 0 c36 -19 60 -52 60 -84 0 -24 2 -24
43 16 64 62 101 77 184 78 57 0 77 -4 99 -21 86 -64 91 -118 30 -318 -25 -82
-46 -153 -46 -158 0 -11 38 -10 45 2 12 19 25 10 25 -17 0 -148 -303 -199
-373 -63 -25 48 -17 93 38 237 25 65 45 123 45 130 0 22 -34 33 -60 20 -39
-20 -58 -57 -101 -197 -46 -150 -49 -173 -25 -199 45 -50 9 -61 -202 -61 -153
0 -182 2 -193 16 -12 14 -9 21 24 48 35 29 41 44 97 226 33 107 60 204 60 216
0 11 -9 29 -20 39 -11 10 -20 24 -20 31 0 51 220 95 290 59z m1646 -15 c44
-42 54 -74 80 -258 13 -97 26 -183 29 -189 13 -37 72 16 107 95 20 44 20 44
-1 66 -49 52 -67 169 -37 241 30 71 119 96 175 49 112 -94 30 -393 -171 -626
-64 -74 -154 -142 -248 -187 -65 -31 -86 -36 -165 -39 -80 -3 -95 -1 -134 20
-58 31 -83 66 -88 125 -4 42 -1 53 21 80 15 17 40 34 56 38 66 15 142 -40 156
-113 6 -28 9 -31 33 -25 33 8 98 40 106 52 3 6 -14 19 -38 29 -60 27 -74 61
-107 268 -16 95 -31 178 -35 184 -4 7 -19 9 -36 5 -25 -6 -29 -4 -29 15 0 61
65 148 135 182 58 27 155 21 191 -12z"/>
<path d="M9342 3153 c-11 -16 -29 -56 -41 -88 l-20 -60 26 -3 c34 -5 68 29 83
82 23 83 -7 126 -48 69z"/>
<path d="M8536 3137 c-48 -62 -120 -294 -114 -366 4 -48 35 -54 70 -13 36 43
109 270 111 346 2 55 0 61 -20 64 -14 2 -29 -7 -47 -31z"/>
<path d="M13897 3153 c-44 -50 -118 -271 -120 -363 -2 -55 -2 -55 28 -55 27 0
33 7 62 65 45 91 95 268 91 322 -2 35 -7 44 -24 46 -11 2 -28 -5 -37 -15z"/>
<path d="M18403 2900 c-41 -17 -58 -85 -28 -110 23 -19 63 3 79 43 30 72 30
77 -1 76 -15 0 -38 -4 -50 -9z"/>
</g>
</svg>
